<?xml version="1.0" standalone="no"?><!DOCTYPE svg PUBLIC "-//W3C//DTD SVG 1.1//EN" "http://www.w3.org/Graphics/SVG/1.1/DTD/svg11.dtd"><svg t="1715307996052" class="icon" viewBox="0 0 1024 1024" version="1.1" xmlns="http://www.w3.org/2000/svg" p-id="4429" xmlns:xlink="http://www.w3.org/1999/xlink" width="200" height="200"><path d="M200.314068 176.550466a3567.418998 3567.418998 0 0 0 639.139932-0.085145l59.654304 662.230482a4232.065981 4232.065981 0 0 1-758.270141 0.097309L200.314068 176.550466z" fill="#EBEBEB" p-id="4430"></path><path d="M525.673903 477.757465a3853.883725 3853.883725 0 0 0 289.777278-11.381067l19.4658 252.694544a4109.351568 4109.351568 0 0 1-308.829516 12.131155l-0.413562-253.444632z" fill="#FFFFFF" p-id="4431"></path><path d="M871.963224 136.398453l4.086967 40.719647a3571.441093 3571.441093 0 0 1-707.807458 0.543307l4.026149-40.723702a4049.709428 4049.709428 0 0 0 19.599599-28.276294 3500.697648 3500.697648 0 0 0 657.498846-0.227054 3624.255404 3624.255404 0 0 0 22.595897 27.964096zM944.255499 856.734408l6.977846 69.494649a4324.367363 4324.367363 0 0 1-857.018225 0.660889l6.868374-69.506813a3989.163128 3989.163128 0 0 0 38.919436-24.242036 4226.831583 4226.831583 0 0 0 758.610722 0.016218 3770.782073 3770.782073 0 0 0 45.641847 23.577093z" fill="#6C95AD" p-id="4432"></path><path d="M101.079439 857.383133a4254.455097 4254.455097 0 0 0 843.172005-0.648725 3863.817324 3863.817324 0 0 1-45.645901-23.577093 4226.831583 4226.831583 0 0 1-758.610722-0.016218 3820.417632 3820.417632 0 0 1-38.915382 24.242036z" fill="#87BBD9" p-id="4433"></path><path d="M217.266059 515.991685a3903.55983 3903.55983 0 0 0 258.147887 11.458103l-4.735691 420.118262a4330.076141 4330.076141 0 0 1-285.929529-12.694734l32.517333-418.881631z" fill="#FFFFFF" p-id="4434"></path><path d="M168.161643 835.581924c8.048243 0.668997 16.096485 1.317722 24.148782 1.94212l-7.557644 97.349272c-8.234751-0.640616-16.469502-1.301504-24.704253-1.990775 2.700317-32.432188 5.404689-64.86843 8.113115-97.300617zM471.781087 849.930907c8.068515 0.0892 16.13703 0.158127 24.205546 0.206781l-0.543307 97.637143c-8.255024-0.0446-16.510047-0.113527-24.765071-0.206781l1.102832-97.637143zM495.585234 922.973269c151.233979 0.839288 302.500394-6.304795 453.170793-21.424138l2.477318 24.679926a4324.148418 4324.148418 0 0 1-455.785965 21.545774l0.137854-24.801562zM96.651892 902.205965c21.805264 2.152956 43.626746 4.139675 65.456337 5.964214l-2.059701 24.716417c-21.955281-1.828593-43.902454-3.827477-65.833408-5.99665l2.436772-24.683981z" opacity=".15" p-id="4435"></path><path d="M259.919717 549.157743l-10.124162 153.135553c57.996001 3.831531 116.056874 6.430485 174.133966 7.784698l3.584205-153.423425a3940.395238 3940.395238 0 0 1-167.594009-7.496826z m-22.737806 343.990402c60.708482 4.00993 121.48589 6.726466 182.283572 8.149606l3.742331-160.093128a4115.303619 4115.303619 0 0 1-175.459797-7.845516l-10.566106 159.789038zM540.014777 527.644405a3903.827429 3903.827429 0 0 0 260.67386-10.087671l12.617698 174.697545a4082.534905 4082.534905 0 0 1-272.367125 10.545833l-0.924433-175.155707z" fill="#6FBBE8" p-id="4436"></path><path d="M167.723753 539.447143a3931.937487 3931.937487 0 0 0 704.41787-0.093255l2.874662 31.929426a3963.173589 3963.173589 0 0 1-710.163139 0.093254l2.870607-31.929425zM515.590287 736.213496c110.571095 0.097309 221.146244-4.257257 331.453794-13.071805l1.196087 14.961216a4127.037429 4127.037429 0 0 1-332.662045 13.116406l0.012164-15.005817z" opacity=".15" p-id="4437"></path><path d="M515.622723 702.852821a4082.384887 4082.384887 0 0 0 328.761586-12.962333l2.525973 31.588845a4112.161358 4112.161358 0 0 1-331.315941 13.067751l0.028382-31.694263z" fill="#FFFFFF" p-id="4438"></path><path d="M540.472939 614.387026a3997.199207 3997.199207 0 0 0 129.485478-2.785463l0.628452 16.672229a4007.578804 4007.578804 0 0 1-130.024731 2.793571l-0.089199-16.680337zM247.743963 733.359107c58.437945 3.859913 116.936707 6.479139 175.459797 7.845516l-0.324362 13.89893c-58.721762-1.370431-117.419196-3.993712-176.051759-7.869843l0.916324-13.874603z" opacity=".15" p-id="4439"></path><path d="M199.94916 180.65365a3571.453256 3571.453256 0 0 0 639.873803-0.085145l1.719121 19.052238a3590.456839 3590.456839 0 0 1-643.303936 0.085145l1.711012-19.052238z" opacity=".05" p-id="4440"></path><path d="M172.264827 136.94176a3530.693063 3530.693063 0 0 0 699.698397-0.539253 3827.942841 3827.942841 0 0 1-22.599952-27.964095 3500.697648 3500.697648 0 0 1-657.498845 0.227054c-6.487248 9.443001-13.019097 18.865729-19.5996 28.276294z" fill="#7FB0CC" p-id="4441"></path><path d="M186.411083 913.46945a4303.660877 4303.660877 0 0 0 284.510444 12.629862l-0.243272 21.468738a4330.076141 4330.076141 0 0 1-285.929529-12.694734l1.662357-21.403866z" opacity=".05" p-id="4442"></path><path d="M228.290327 219.666341a4647.894551 4647.894551 0 0 1-129.043535 209.598942 3828.834837 3828.834837 0 0 0 840.317615 0 4762.086341 4762.086341 0 0 1-125.236331-209.907087 3607.376394 3607.376394 0 0 1-586.037749 0.308145z" fill="#FF5454" p-id="4443"></path><path d="M99.250846 429.265283a3828.834837 3828.834837 0 0 0 840.317616 0l11.093195 100.487478a3929.841295 3929.841295 0 0 1-862.50806 0l11.097249-100.487478z" fill="#D94747" p-id="4444"></path><path d="M462.143469 230.97848c-8.109061 73.532961-16.639792 147.03754-25.59625 220.513738l-2.189446 101.079439a3932.801102 3932.801102 0 0 1-169.994291-7.363027l6.56023-100.884822a7754.289131 7754.289131 0 0 0 68.931069-217.355258c40.743975 2.023211 81.512276 3.361206 122.288688 4.00993zM571.461714 231.055516a15522.720463 15522.720463 0 0 0 30.822539 220.432647l2.185391 101.07944a3932.330777 3932.330777 0 0 0 169.978073-7.363027l-6.56023-100.884822a6258.491826 6258.491826 0 0 1-84.541011-216.61328 3601.233781 3601.233781 0 0 1-111.884762 3.349042z" fill="#FFFFFF" p-id="4445"></path><path d="M268.069323 445.665858a3829.828197 3829.828197 0 0 0 168.441405 7.358972l-2.152955 99.546827a3941.396706 3941.396706 0 0 1-172.824353-7.549535l6.535903-99.356264zM602.280198 451.488163a3827.569824 3827.569824 0 0 0 165.603234-7.176518l6.56023 100.888876a3925.571875 3925.571875 0 0 1-169.978072 7.363027l-2.185392-101.075385z" fill="#E8E8E8" p-id="4446"></path><path d="M356.944626 252.77158a7929.907055 7929.907055 0 0 1-58.348745 191.714409l-5.919614 102.462035a3884.572465 3884.572465 0 0 1-28.312785-1.739394c1.20825-33.182276 2.444882-66.360497 3.705841-99.538718a7447.734207 7447.734207 0 0 0 64.325123-194.0782c8.182042 0.417617 16.368139 0.810906 24.55018 1.179868zM598.035105 255.552988a12634.593411 12634.593411 0 0 0 34.60947 195.156705l2.992244 101.059167c-10.387707 0.30409-20.779468 0.575743-31.171229 0.798743l-2.185392-101.07944a15539.23051 15539.23051 0 0 1-27.489715-195.505395c7.748207-0.117581 15.496415-0.25949 23.244622-0.42978z" fill="#FFFFFF" opacity=".2" p-id="4447"></path><path d="M92.609526 489.40613a3889.413574 3889.413574 0 0 0 853.596202 0l4.455929 40.346631a3929.841295 3929.841295 0 0 1-862.50806 0l4.455929-40.346631z" opacity=".05" p-id="4448"></path><path d="M246.827639 747.229655c6.126395 0.405453 12.25279 0.794688 18.379186 1.175814l-8.997003 145.959035a4278.38088 4278.38088 0 0 1-19.027911-1.216359l9.645728-145.91849zM257.973543 578.634178c5.246562 0.34869 10.493124 0.685216 15.739686 1.009578l-7.683335 123.6875c-5.412798-0.336526-10.821541-0.685216-16.234339-1.042014l8.177988-123.655064z" opacity=".15" p-id="4449"></path></svg>