<?xml version="1.0" standalone="no"?><!DOCTYPE svg PUBLIC "-//W3C//DTD SVG 1.1//EN" "http://www.w3.org/Graphics/SVG/1.1/DTD/svg11.dtd"><svg t="1684824108025" class="icon" viewBox="0 0 1024 1024" version="1.1" xmlns="http://www.w3.org/2000/svg" p-id="18508" xmlns:xlink="http://www.w3.org/1999/xlink" width="200" height="200"><path d="M33.391304 311.652174m44.521739 0l667.826087 0q44.521739 0 44.52174 44.521739l0 623.304348q0 44.521739-44.52174 44.521739l-667.826087 0q-44.521739 0-44.521739-44.521739l0-623.304348q0-44.521739 44.521739-44.521739Z" fill="#38E1B3" p-id="18509"></path><path d="M233.73913 66.782609h645.565218a111.304348 111.304348 0 0 1 111.304348 111.304348v734.608695a111.304348 111.304348 0 0 1-111.304348 111.304348h-756.869565v-845.913043a111.304348 111.304348 0 0 1 111.304347-111.304348z" fill="#56ECC3" p-id="18510"></path><path d="M322.782609 523.130435m44.521739 0l356.173913 0q44.521739 0 44.521739 44.521739l0 0q0 44.521739-44.521739 44.521739l-356.173913 0q-44.521739 0-44.521739-44.521739l0 0q0-44.521739 44.521739-44.521739Z" fill="#FFFFFF" p-id="18511"></path><path d="M322.782609 701.217391m44.521739 0l356.173913 0q44.521739 0 44.521739 44.521739l0 0q0 44.521739-44.521739 44.52174l-356.173913 0q-44.521739 0-44.521739-44.52174l0 0q0-44.521739 44.521739-44.521739Z" fill="#FFFFFF" p-id="18512"></path></svg>