<?xml version="1.0" standalone="no"?><!DOCTYPE svg PUBLIC "-//W3C//DTD SVG 1.1//EN" "http://www.w3.org/Graphics/SVG/1.1/DTD/svg11.dtd"><svg class="icon" width="200px" height="200.00px" viewBox="0 0 1024 1024" version="1.1" xmlns="http://www.w3.org/2000/svg"><path d="M176.4 605.9m-49 0a49 49 0 1 0 98 0 49 49 0 1 0-98 0Z" fill="#72AEFD" /><path d="M420.6 605.9m-49 0a49 49 0 1 0 98 0 49 49 0 1 0-98 0Z" fill="#72AEFD" /><path d="M664.8 605.9m-49 0a49 49 0 1 0 98 0 49 49 0 1 0-98 0Z" fill="#72AEFD" /><path d="M909 605.9m-49 0a49 49 0 1 0 98 0 49 49 0 1 0-98 0Z" fill="#72AEFD" /><path d="M575.9 431.2H130c-17.6 0-32-14.4-32-32s14.4-32 32-32h445.9c17.6 0 32 14.4 32 32s-14.4 32-32 32zM926 431.2H704c-17.6 0-32-14.4-32-32s14.4-32 32-32h222c17.6 0 32 14.4 32 32s-14.4 32-32 32z" fill="#72AEFD" /><path d="M927.3 846.7H478.7c-17.6 0-32-14.4-32-32s14.4-32 32-32h448.6c17.6 0 32 14.4 32 32s-14.4 32-32 32zM352 846.7H130c-17.6 0-32-14.4-32-32s14.4-32 32-32h222c17.6 0 32 14.4 32 32s-14.4 32-32 32z" fill="#72AEFD" /><path d="M176.4 207m-49 0a49 49 0 1 0 98 0 49 49 0 1 0-98 0Z" fill="#72AEFD" /><path d="M420.6 207m-49 0a49 49 0 1 0 98 0 49 49 0 1 0-98 0Z" fill="#72AEFD" /><path d="M664.8 207m-49 0a49 49 0 1 0 98 0 49 49 0 1 0-98 0Z" fill="#72AEFD" /><path d="M909 207m-49 0a49 49 0 1 0 98 0 49 49 0 1 0-98 0Z" fill="#72AEFD" /></svg>